<?xml version="1.0" encoding="utf-8"?>
<!-- Generator: Adobe Illustrator 23.0.0, SVG Export Plug-In . SVG Version: 6.00 Build 0)  -->
<svg version="1.1" id="Calque_1" xmlns="http://www.w3.org/2000/svg" xmlns:xlink="http://www.w3.org/1999/xlink" x="0px" y="0px"
	 viewBox="0 0 90 90" style="enable-background:new 0 0 90 90;" xml:space="preserve">
<style type="text/css">
	.st0{fill:#FFFFFF;}
</style>
<title>25.4</title>
<desc>Created with Sketch.</desc>
<g>
	<path class="st0" d="M47.1,82.6c-20.6,0-37.3-16.7-37.3-37.3c0-20.6,16.7-37.3,37.3-37.3c11.7,0,22.2,5.4,29,13.9l5.8-4.7
		C73.7,7,61.2,0.5,47.1,0.5C22.4,0.5,2.4,20.6,2.4,45.3S22.4,90,47.1,90c14,0,26.6-6.5,34.8-16.6l-5.8-4.7
		C69.3,77.1,58.8,82.6,47.1,82.6z"/>
	<polygon class="st0" points="51,24.7 45,24.7 45,64.3 52,64.3 52,38.4 65,59.7 68.3,59.7 81.3,38 81.3,64.3 88.3,64.3 88.2,24.7 
		82.2,24.7 66.7,50.9 	"/>
</g>
</svg>
