<?xml version="1.0" encoding="utf-8"?>
<!-- Generator: Adobe Illustrator 23.0.0, SVG Export Plug-In . SVG Version: 6.00 Build 0)  -->
<svg version="1.1" id="Calque_1" xmlns="http://www.w3.org/2000/svg" xmlns:xlink="http://www.w3.org/1999/xlink" x="0px" y="0px"
	 viewBox="0 0 90 90" style="enable-background:new 0 0 90 90;" xml:space="preserve">
<style type="text/css">
	.st0{fill:#FFFFFF;}
</style>
<title>25.4</title>
<desc>Created with Sketch.</desc>
<g>
	<path class="st0" d="M39.6,51.8l1.4,0.4c7.8,2.5,11.9,4.1,11.9,10.1h7c0-11.4-9.3-14.4-16.8-16.8l-1.3-0.4
		c-8.3-2.7-14.2-5.5-14.2-15.9c0-3.7,1.1-15.6,15.8-15.6c5.1,0,10.4,2,13.9,5.2l4.8-5.1c-4.8-4.4-11.8-7.1-18.6-7.1
		c-11.6,0-19.8,6.3-22.1,16.4l-5.8-4H3.6v49.5h7V26.1h2.8l7.3,5.1C21.6,45.9,32.8,49.6,39.6,51.8z"/>
	<path class="st0" d="M80.4,20.2v42.5h-2.8l-7.3-5.1C69.4,42.9,58.2,39.2,51.4,37L50,36.5c-7.8-2.5-11.9-4.1-11.9-10.1h-7
		c0,11.4,9.3,14.4,16.8,16.8l1.3,0.4c8.3,2.7,14.2,5.5,14.2,15.9c0,3.7-1.1,15.6-15.8,15.6c-5.1,0-10.4-2-13.9-5.2L28.9,75
		c4.8,4.4,11.8,7.1,18.6,7.1c11.6,0,19.8-6.3,22.1-16.4l5.8,4h11.9V20.2H80.4z"/>
</g>
</svg>
